<svg width="13" height="13" viewBox="0 0 13 13" fill="none" xmlns="http://www.w3.org/2000/svg">
<path fill-rule="evenodd" clip-rule="evenodd" d="M2.7885 1.33381C2.7885 2.06096 2.23484 2.64942 1.36901 2.64942C0.536913 2.64942 -0.0167478 2.06096 0.000386763 1.33381C-0.0167478 0.571328 0.5369 0 1.3856 0C2.23483 0 2.7719 0.571328 2.7885 1.33381ZM0.0699986 12.1585V3.68874H2.70229V12.158H0.0699986V12.1585Z" fill="black"/>
<path fill-rule="evenodd" clip-rule="evenodd" d="M4.8118 6.39199C4.8118 5.33554 4.77699 4.4349 4.74219 3.69008H7.02858L7.15012 4.85042H7.20207C7.54851 4.31336 8.41434 3.5 9.81723 3.5C11.5489 3.5 12.8479 4.64319 12.8479 7.13627V12.1599H10.2156V7.4661C10.2156 6.37431 9.8349 5.63003 8.88233 5.63003C8.15464 5.63003 7.722 6.13229 7.54905 6.61688C7.47944 6.79036 7.44517 7.03239 7.44517 7.27548V12.1599H4.81286V6.39199H4.8118Z" fill="black"/>
</svg>
