<svg width="660" height="200" viewBox="0 0 660 200" fill="none" xmlns="http://www.w3.org/2000/svg">
<path d="M25.5001 45.0001L97 101L25.5001 149.5" stroke="black" stroke-opacity="0.5" stroke-width="10" stroke-linecap="round"/>
<path d="M5.00001 45.0001C5.00001 39.6958 7.10715 34.6087 10.8579 30.858C14.6086 27.1073 19.6957 25.0001 25 25.0001C30.3043 25.0001 35.3914 27.1073 39.1421 30.858C42.8929 34.6087 45 39.6958 45 45.0001C45 50.3045 42.8929 55.3915 39.1421 59.1423C35.3914 62.893 30.3043 65.0001 25 65.0001C19.6957 65.0001 14.6086 62.893 10.8579 59.1423C7.10715 55.3915 5.00001 50.3044 5.00001 45.0001ZM5 149C5 143.696 7.10714 138.609 10.8579 134.858C14.6086 131.107 19.6957 129 25 129C30.3043 129 35.3914 131.107 39.1421 134.858C42.8929 138.609 45 143.696 45 149C45 154.304 42.8929 159.392 39.1421 163.142C35.3914 166.893 30.3043 169 25 169C19.6957 169 14.6086 166.893 10.8579 163.142C7.10714 159.392 5 154.304 5 149Z" fill="white" stroke="black" stroke-width="10"/>
<path d="M77 101C77 95.6958 79.1071 90.6087 82.8579 86.858C86.6086 83.1073 91.6957 81.0001 97 81.0001C102.304 81.0001 107.391 83.1073 111.142 86.858C114.893 90.6087 117 95.6958 117 101C117 106.304 114.893 111.392 111.142 115.142C107.391 118.893 102.304 121 97 121C91.6957 121 86.6086 118.893 82.8579 115.142C79.1071 111.392 77 106.304 77 101Z" fill="white" stroke="black" stroke-width="10"/>
<path d="M191.905 87.9452C187.945 87.9452 184.285 87.1952 180.925 85.6952C177.595 84.1652 174.67 81.9452 172.15 79.0352C169.66 76.0952 167.725 72.5102 166.345 68.2802C164.965 64.0202 164.275 59.1752 164.275 53.7452C164.275 48.2852 164.965 43.4552 166.345 39.2552C167.725 35.0252 169.66 31.4702 172.15 28.5902C174.67 25.6802 177.61 23.4902 180.97 22.0202C184.33 20.5202 187.975 19.7702 191.905 19.7702C195.865 19.7702 199.525 20.5202 202.885 22.0202C206.275 23.4902 209.215 25.6802 211.705 28.5902C214.195 31.4702 216.13 35.0252 217.51 39.2552C218.89 43.4552 219.58 48.2852 219.58 53.7452C219.58 59.1752 218.89 64.0202 217.51 68.2802C216.13 72.5102 214.18 76.0952 211.66 79.0352C209.17 81.9452 206.245 84.1652 202.885 85.6952C199.525 87.1952 195.865 87.9452 191.905 87.9452ZM191.905 79.6202C195.295 79.6202 198.325 78.6902 200.995 76.8302C203.695 74.9702 205.81 72.1352 207.34 68.3252C208.87 64.4852 209.635 59.6252 209.635 53.7452C209.635 47.8352 208.855 42.9902 207.295 39.2102C205.765 35.4302 203.665 32.6402 200.995 30.8402C198.325 29.0402 195.295 28.1402 191.905 28.1402C188.575 28.1402 185.56 29.0402 182.86 30.8402C180.19 32.6402 178.075 35.4302 176.515 39.2102C174.955 42.9902 174.175 47.8352 174.175 53.7452C174.175 59.6552 174.955 64.5302 176.515 68.3702C178.075 72.1802 180.19 75.0152 182.86 76.8752C185.56 78.7052 188.575 79.6202 191.905 79.6202ZM255.441 87.9452C251.721 87.9452 248.271 87.0152 245.091 85.1552C241.911 83.2652 239.331 80.6852 237.351 77.4152C235.401 74.1452 234.426 70.4402 234.426 66.3002C234.426 66.1802 234.426 66.0902 234.426 66.0302C234.426 65.9402 234.426 65.8502 234.426 65.7602L240.096 65.6252C240.096 65.6852 240.096 65.7602 240.096 65.8502C240.096 65.9102 240.096 65.9852 240.096 66.0752C240.096 68.5352 240.726 70.7552 241.986 72.7352C243.276 74.6852 244.941 76.2302 246.981 77.3702C249.021 78.5102 251.211 79.0802 253.551 79.0802C257.391 79.0802 260.616 77.7752 263.226 75.1652C265.866 72.5252 267.186 68.4752 267.186 63.0152C267.186 57.5252 265.881 53.4902 263.271 50.9102C260.661 48.3002 257.421 46.9952 253.551 46.9952C251.211 46.9952 249.021 47.5652 246.981 48.7052C244.941 49.8152 243.276 51.3452 241.986 53.2952C240.726 55.2152 240.096 57.4202 240.096 59.9102L234.426 59.6852C234.426 55.5152 235.401 51.8402 237.351 48.6602C239.331 45.4502 241.911 42.9452 245.091 41.1452C248.271 39.3452 251.721 38.4452 255.441 38.4452C259.311 38.4452 262.896 39.4052 266.196 41.3252C269.496 43.2152 272.151 45.9902 274.161 49.6502C276.201 53.3102 277.221 57.7652 277.221 63.0152C277.221 68.3852 276.231 72.9302 274.251 76.6502C272.271 80.3702 269.631 83.1902 266.331 85.1102C263.031 87.0002 259.401 87.9452 255.441 87.9452ZM230.286 87.0002V16.6652H240.096V87.0002H230.286ZM280.471 107.25C279.631 107.25 278.836 107.22 278.086 107.16C277.336 107.1 276.721 107.025 276.241 106.935V99.6002C276.721 99.7202 277.351 99.8252 278.131 99.9152C278.881 100.005 279.661 100.05 280.471 100.05C282.361 100.05 283.846 99.7652 284.926 99.1952C286.036 98.6552 286.846 97.9352 287.356 97.0352C287.896 96.1652 288.241 95.1902 288.391 94.1102C288.571 93.0302 288.661 91.9802 288.661 90.9602V39.2102H298.426V91.2752C298.426 93.2552 298.216 95.1902 297.796 97.0802C297.376 98.9702 296.551 100.68 295.321 102.21C294.121 103.74 292.336 104.955 289.966 105.855C287.596 106.785 284.431 107.25 280.471 107.25ZM293.701 29.3102C292.051 29.3102 290.611 28.8602 289.381 27.9602C288.151 27.0302 287.536 25.7552 287.536 24.1352C287.536 22.5452 288.151 21.3002 289.381 20.4002C290.611 19.4702 292.051 19.0052 293.701 19.0052C295.381 19.0052 296.821 19.4702 298.021 20.4002C299.251 21.3002 299.866 22.5452 299.866 24.1352C299.866 25.7552 299.251 27.0302 298.021 27.9602C296.821 28.8602 295.381 29.3102 293.701 29.3102ZM314.962 66.5252V58.9202H350.152L348.802 61.1702C348.802 60.9902 348.802 60.8102 348.802 60.6302C348.802 60.4202 348.802 60.2402 348.802 60.0902C348.802 57.6602 348.277 55.4252 347.227 53.3852C346.177 51.3152 344.602 49.6652 342.502 48.4352C340.432 47.1752 337.837 46.5452 334.717 46.5452C331.597 46.5452 328.852 47.2202 326.482 48.5702C324.142 49.8902 322.312 51.7802 320.992 54.2402C319.702 56.6702 319.057 59.5952 319.057 63.0152C319.057 66.4952 319.687 69.4952 320.947 72.0152C322.207 74.5052 324.022 76.4252 326.392 77.7752C328.762 79.1252 331.597 79.8002 334.897 79.8002C337.207 79.8002 339.202 79.5752 340.882 79.1252C342.592 78.6452 343.987 78.0152 345.067 77.2352C346.177 76.4552 347.017 75.6152 347.587 74.7152C348.157 73.7852 348.487 72.8702 348.577 71.9702H358.297C358.117 73.9202 357.472 75.8552 356.362 77.7752C355.282 79.6652 353.737 81.3902 351.727 82.9502C349.747 84.4802 347.317 85.7102 344.437 86.6402C341.587 87.5402 338.302 87.9902 334.582 87.9902C329.602 87.9902 325.237 86.9402 321.487 84.8402C317.737 82.7402 314.812 79.8302 312.712 76.1102C310.612 72.3602 309.562 68.0702 309.562 63.2402C309.562 58.3202 310.627 54.0002 312.757 50.2802C314.887 46.5602 317.842 43.6652 321.622 41.5952C325.402 39.4952 329.737 38.4452 334.627 38.4452C339.607 38.4452 343.912 39.4952 347.542 41.5952C351.202 43.6952 354.022 46.5902 356.002 50.2802C357.982 53.9702 358.972 58.2152 358.972 63.0152C358.972 63.5852 358.957 64.2452 358.927 64.9952C358.897 65.7452 358.852 66.2552 358.792 66.5252H314.962ZM393.032 87.9452C388.232 87.9452 383.927 86.9402 380.117 84.9302C376.337 82.8902 373.352 79.9952 371.162 76.2452C369.002 72.4952 367.922 68.0852 367.922 63.0152C367.922 57.9452 369.002 53.5802 371.162 49.9202C373.352 46.2302 376.337 43.3952 380.117 41.4152C383.927 39.4352 388.232 38.4452 393.032 38.4452C396.662 38.4452 399.887 39.0002 402.707 40.1102C405.527 41.1902 407.912 42.6302 409.862 44.4302C411.812 46.2302 413.297 48.2102 414.317 50.3702C415.337 52.5302 415.847 54.6902 415.847 56.8502C415.847 56.8802 415.847 56.9252 415.847 56.9852C415.847 57.0452 415.847 57.1052 415.847 57.1652H406.172C406.172 57.0152 406.157 56.8502 406.127 56.6702C406.097 56.4602 406.067 56.2652 406.037 56.0852C405.797 54.3152 405.107 52.7402 403.967 51.3602C402.827 49.9802 401.327 48.8852 399.467 48.0752C397.607 47.2652 395.432 46.8602 392.942 46.8602C390.212 46.8602 387.692 47.4602 385.382 48.6602C383.102 49.8302 381.272 51.6152 379.892 54.0152C378.512 56.4152 377.822 59.4152 377.822 63.0152C377.822 66.6152 378.497 69.6452 379.847 72.1052C381.227 74.5352 383.057 76.3802 385.337 77.6402C387.647 78.9002 390.182 79.5302 392.942 79.5302C395.912 79.5302 398.342 79.0802 400.232 78.1802C402.122 77.2502 403.547 76.0202 404.507 74.4902C405.467 72.9302 406.022 71.2502 406.172 69.4502H415.847C415.847 71.6102 415.352 73.8002 414.362 76.0202C413.372 78.2102 411.917 80.2052 409.997 82.0052C408.077 83.8052 405.692 85.2452 402.842 86.3252C400.022 87.4052 396.752 87.9452 393.032 87.9452ZM446.273 87.8102C444.683 87.8102 443.093 87.6452 441.503 87.3152C439.943 86.9852 438.503 86.3852 437.183 85.5152C435.893 84.6152 434.858 83.3402 434.078 81.6902C433.298 80.0402 432.908 77.8802 432.908 75.2102C432.908 74.5802 432.908 73.9202 432.908 73.2302C432.908 72.5402 432.908 71.8352 432.908 71.1152V47.3102H421.433V39.2102H427.463C428.753 39.2102 429.758 39.1652 430.478 39.0752C431.228 38.9552 431.768 38.7002 432.098 38.3102C432.458 37.8902 432.683 37.2302 432.773 36.3302C432.863 35.4302 432.908 34.2002 432.908 32.6402V23.4152H442.673V39.2102H457.298V47.3102H442.673V68.5052C442.673 69.1052 442.673 69.7052 442.673 70.3052C442.673 70.9052 442.673 71.4602 442.673 71.9702C442.673 74.3702 442.958 76.2602 443.528 77.6402C444.128 79.0202 445.478 79.7102 447.578 79.7102C448.478 79.7102 449.333 79.6352 450.143 79.4852C450.953 79.3352 451.568 79.1702 451.988 78.9902V86.9552C451.448 87.1652 450.683 87.3602 449.693 87.5402C448.703 87.7202 447.563 87.8102 446.273 87.8102ZM466.759 87.0002V39.2102H476.389V87.0002H466.759ZM471.619 29.3102C469.939 29.3102 468.484 28.8602 467.254 27.9602C466.054 27.0302 465.454 25.7552 465.454 24.1352C465.454 22.5452 466.054 21.3002 467.254 20.4002C468.484 19.4702 469.939 19.0052 471.619 19.0052C473.269 19.0052 474.694 19.4702 475.894 20.4002C477.124 21.3002 477.739 22.5452 477.739 24.1352C477.739 25.7552 477.124 27.0302 475.894 27.9602C474.694 28.8602 473.269 29.3102 471.619 29.3102ZM529.483 39.2102L514.003 87.0002H501.043L485.158 39.2102H495.238L508.288 82.9052H506.758L519.403 39.2102H529.483ZM539.084 66.5252V58.9202H574.274L572.924 61.1702C572.924 60.9902 572.924 60.8102 572.924 60.6302C572.924 60.4202 572.924 60.2402 572.924 60.0902C572.924 57.6602 572.399 55.4252 571.349 53.3852C570.299 51.3152 568.724 49.6652 566.624 48.4352C564.554 47.1752 561.959 46.5452 558.839 46.5452C555.719 46.5452 552.974 47.2202 550.604 48.5702C548.264 49.8902 546.434 51.7802 545.114 54.2402C543.824 56.6702 543.179 59.5952 543.179 63.0152C543.179 66.4952 543.809 69.4952 545.069 72.0152C546.329 74.5052 548.144 76.4252 550.514 77.7752C552.884 79.1252 555.719 79.8002 559.019 79.8002C561.329 79.8002 563.324 79.5752 565.004 79.1252C566.714 78.6452 568.109 78.0152 569.189 77.2352C570.299 76.4552 571.139 75.6152 571.709 74.7152C572.279 73.7852 572.609 72.8702 572.699 71.9702H582.419C582.239 73.9202 581.594 75.8552 580.484 77.7752C579.404 79.6652 577.859 81.3902 575.849 82.9502C573.869 84.4802 571.439 85.7102 568.559 86.6402C565.709 87.5402 562.424 87.9902 558.704 87.9902C553.724 87.9902 549.359 86.9402 545.609 84.8402C541.859 82.7402 538.934 79.8302 536.834 76.1102C534.734 72.3602 533.684 68.0702 533.684 63.2402C533.684 58.3202 534.749 54.0002 536.879 50.2802C539.009 46.5602 541.964 43.6652 545.744 41.5952C549.524 39.4952 553.859 38.4452 558.749 38.4452C563.729 38.4452 568.034 39.4952 571.664 41.5952C575.324 43.6952 578.144 46.5902 580.124 50.2802C582.104 53.9702 583.094 58.2152 583.094 63.0152C583.094 63.5852 583.079 64.2452 583.049 64.9952C583.019 65.7452 582.974 66.2552 582.914 66.5252H539.084ZM604.283 16.6652V87.0002H594.653V16.6652H604.283ZM619.652 107.34C618.362 107.34 617.177 107.265 616.097 107.115C615.047 106.995 614.402 106.875 614.162 106.755V98.7902C614.552 98.9702 615.197 99.1202 616.097 99.2402C617.027 99.3602 617.987 99.4202 618.977 99.4202C620.747 99.4202 622.262 99.0602 623.522 98.3402C624.812 97.6202 625.892 96.6152 626.762 95.3252C627.662 94.0652 628.382 92.6252 628.922 91.0052L630.137 87.4052L613.667 39.2102H623.837L636.122 79.7102H634.862L646.832 39.2102H656.867L639.722 90.5102C638.672 93.7202 637.382 96.5852 635.852 99.1052C634.322 101.655 632.282 103.665 629.732 105.135C627.182 106.605 623.822 107.34 619.652 107.34ZM166.075 179V112.625H184.3C188.71 112.625 192.7 113.405 196.27 114.965C199.84 116.525 202.885 118.745 205.405 121.625C207.955 124.505 209.92 127.985 211.3 132.065C212.68 136.145 213.37 140.705 213.37 145.745C213.37 150.815 212.68 155.39 211.3 159.47C209.92 163.55 207.955 167.045 205.405 169.955C202.885 172.865 199.84 175.1 196.27 176.66C192.7 178.22 188.71 179 184.3 179H166.075ZM175.885 176.03L171.475 170.9H183.13C187.03 170.9 190.51 169.88 193.57 167.84C196.66 165.8 199.075 162.905 200.815 159.155C202.555 155.375 203.425 150.905 203.425 145.745C203.425 140.555 202.555 136.1 200.815 132.38C199.075 128.63 196.66 125.75 193.57 123.74C190.51 121.73 187.03 120.725 183.13 120.725H171.475L175.885 115.595V176.03ZM224.181 179V131.21H233.811V179H224.181ZM229.041 121.31C227.361 121.31 225.906 120.86 224.676 119.96C223.476 119.03 222.876 117.755 222.876 116.135C222.876 114.545 223.476 113.3 224.676 112.4C225.906 111.47 227.361 111.005 229.041 111.005C230.691 111.005 232.116 111.47 233.316 112.4C234.546 113.3 235.161 114.545 235.161 116.135C235.161 117.755 234.546 119.03 233.316 119.96C232.116 120.86 230.691 121.31 229.041 121.31ZM278.175 175.175C280.875 175.415 283.245 175.925 285.285 176.705C287.325 177.455 288.915 178.565 290.055 180.035C291.225 181.535 291.81 183.5 291.81 185.93C291.81 188.66 290.88 191.03 289.02 193.04C287.19 195.08 284.445 196.655 280.785 197.765C277.125 198.905 272.58 199.475 267.15 199.475C259.38 199.475 253.455 198.35 249.375 196.1C245.295 193.85 243.255 190.79 243.255 186.92C243.255 185.75 243.39 184.715 243.66 183.815C243.93 182.915 244.26 182.165 244.65 181.565L253.74 182.915C253.53 183.215 253.32 183.65 253.11 184.22C252.9 184.82 252.795 185.54 252.795 186.38C252.795 188.51 254.1 190.025 256.71 190.925C259.32 191.825 262.935 192.275 267.555 192.275C270.945 192.275 273.75 192.035 275.97 191.555C278.22 191.105 279.9 190.445 281.01 189.575C282.12 188.705 282.675 187.685 282.675 186.515C282.675 184.745 281.91 183.635 280.38 183.185C278.85 182.735 277.005 182.42 274.845 182.24L256.71 180.755C253.56 180.485 250.98 179.54 248.97 177.92C246.99 176.3 246 174.26 246 171.8C246 170.27 246.39 168.845 247.17 167.525C247.95 166.205 248.85 165.095 249.87 164.195C250.92 163.295 251.82 162.74 252.57 162.53L258.96 165.59C258.27 165.68 257.43 166.145 256.44 166.985C255.48 167.795 255 168.755 255 169.865C255 170.885 255.42 171.725 256.26 172.385C257.13 173.045 258.81 173.48 261.3 173.69L278.175 175.175ZM284.16 131.21H293.025L289.38 149.885C288.72 153.365 287.505 156.515 285.735 159.335C283.995 162.125 281.625 164.33 278.625 165.95C275.655 167.57 271.95 168.38 267.51 168.38C262.89 168.38 258.915 167.585 255.585 165.995C252.255 164.405 249.69 162.2 247.89 159.38C246.12 156.53 245.235 153.29 245.235 149.66C245.235 145.97 246.15 142.67 247.98 139.76C249.84 136.85 252.39 134.57 255.63 132.92C258.9 131.27 262.635 130.445 266.835 130.445C270.375 130.445 273.51 131.045 276.24 132.245C279 133.445 281.19 134.975 282.81 136.835C284.43 138.695 285.315 140.63 285.465 142.64L282.675 142.955L284.16 131.21ZM267.465 160.415C270.075 160.415 272.325 159.995 274.215 159.155C276.105 158.285 277.56 157.04 278.58 155.42C279.6 153.77 280.11 151.79 280.11 149.48C280.11 147.2 279.6 145.25 278.58 143.63C277.56 141.98 276.105 140.72 274.215 139.85C272.325 138.95 270.09 138.5 267.51 138.5C265.02 138.5 262.815 138.965 260.895 139.895C259.005 140.795 257.52 142.07 256.44 143.72C255.36 145.37 254.82 147.335 254.82 149.615C254.82 151.895 255.33 153.845 256.35 155.465C257.37 157.055 258.825 158.285 260.715 159.155C262.605 159.995 264.855 160.415 267.465 160.415ZM302.404 179V131.21H312.034V179H302.404ZM307.264 121.31C305.584 121.31 304.129 120.86 302.899 119.96C301.699 119.03 301.099 117.755 301.099 116.135C301.099 114.545 301.699 113.3 302.899 112.4C304.129 111.47 305.584 111.005 307.264 111.005C308.914 111.005 310.339 111.47 311.539 112.4C312.769 113.3 313.384 114.545 313.384 116.135C313.384 117.755 312.769 119.03 311.539 119.96C310.339 120.86 308.914 121.31 307.264 121.31ZM345.463 179.81C343.873 179.81 342.283 179.645 340.693 179.315C339.133 178.985 337.693 178.385 336.373 177.515C335.083 176.615 334.048 175.34 333.268 173.69C332.488 172.04 332.098 169.88 332.098 167.21C332.098 166.58 332.098 165.92 332.098 165.23C332.098 164.54 332.098 163.835 332.098 163.115V139.31H320.623V131.21H326.653C327.943 131.21 328.948 131.165 329.668 131.075C330.418 130.955 330.958 130.7 331.288 130.31C331.648 129.89 331.873 129.23 331.963 128.33C332.053 127.43 332.098 126.2 332.098 124.64V115.415H341.863V131.21H356.488V139.31H341.863V160.505C341.863 161.105 341.863 161.705 341.863 162.305C341.863 162.905 341.863 163.46 341.863 163.97C341.863 166.37 342.148 168.26 342.718 169.64C343.318 171.02 344.668 171.71 346.768 171.71C347.668 171.71 348.523 171.635 349.333 171.485C350.143 171.335 350.758 171.17 351.178 170.99V178.955C350.638 179.165 349.873 179.36 348.883 179.54C347.893 179.72 346.753 179.81 345.463 179.81ZM380.968 179.945C377.368 179.945 374.203 179.375 371.473 178.235C368.773 177.095 366.673 175.46 365.173 173.33C363.673 171.2 362.923 168.635 362.923 165.635C362.923 162.425 363.763 159.77 365.443 157.67C367.153 155.57 369.493 153.95 372.463 152.81C375.463 151.64 378.868 150.875 382.678 150.515C388.348 149.945 392.338 149.39 394.648 148.85C396.988 148.31 398.158 147.425 398.158 146.195C398.158 146.165 398.158 146.135 398.158 146.105C398.158 143.675 397.123 141.83 395.053 140.57C392.983 139.31 390.028 138.68 386.188 138.68C382.138 138.68 379.003 139.4 376.783 140.84C374.593 142.25 373.498 144.5 373.498 147.59H363.913C363.913 143.93 364.858 140.825 366.748 138.275C368.668 135.725 371.308 133.79 374.668 132.47C378.028 131.12 381.883 130.445 386.233 130.445C390.223 130.445 393.853 131.06 397.123 132.29C400.423 133.49 403.048 135.29 404.998 137.69C406.948 140.09 407.923 143.075 407.923 146.645C407.923 147.275 407.923 147.905 407.923 148.535C407.923 149.135 407.923 149.75 407.923 150.38V169.46C407.923 170.57 407.968 171.65 408.058 172.7C408.148 173.72 408.313 174.635 408.553 175.445C408.823 176.375 409.138 177.14 409.498 177.74C409.888 178.34 410.203 178.76 410.443 179H400.723C400.543 178.82 400.273 178.445 399.913 177.875C399.583 177.275 399.283 176.585 399.013 175.805C398.743 175.055 398.533 174.2 398.383 173.24C398.263 172.25 398.203 171.185 398.203 170.045L400.003 171.305C399.103 173.045 397.738 174.56 395.908 175.85C394.108 177.14 391.933 178.145 389.383 178.865C386.863 179.585 384.058 179.945 380.968 179.945ZM382.993 171.845C385.783 171.845 388.318 171.41 390.598 170.54C392.908 169.64 394.753 168.29 396.133 166.49C397.513 164.66 398.203 162.365 398.203 159.605V151.685L400.498 154.7C398.578 155.45 396.223 156.065 393.433 156.545C390.673 156.995 387.823 157.37 384.883 157.67C380.833 158.03 377.788 158.735 375.748 159.785C373.708 160.805 372.688 162.515 372.688 164.915C372.688 167.225 373.528 168.965 375.208 170.135C376.918 171.275 379.513 171.845 382.993 171.845ZM430.084 108.665V179H420.454V108.665H430.084Z" fill="black"/>
</svg>
