<svg width="15" height="12" viewBox="0 0 15 12" fill="none" xmlns="http://www.w3.org/2000/svg">
<path fill-rule="evenodd" clip-rule="evenodd" d="M14.08 1.36358C13.5624 1.59509 13.0053 1.75101 12.421 1.82141C13.0175 1.46138 13.4755 0.891568 13.6909 0.212614C13.1334 0.546185 12.5144 0.787624 11.8569 0.9185C11.3299 0.353415 10.5785 0 9.74834 0C8.15318 0 6.85979 1.30215 6.85979 2.90811C6.85979 3.13585 6.8856 3.35791 6.93488 3.571C4.53393 3.45005 2.40564 2.292 0.980841 0.532484C0.732111 0.961968 0.589913 1.46138 0.589913 1.99434C0.589913 3.00308 1.0991 3.89324 1.87486 4.41485C1.40087 4.39973 0.955967 4.26886 0.565977 4.05104V4.08742C0.565977 5.49683 1.56231 6.67189 2.88292 6.93978C2.64076 7.00593 2.38546 7.04184 2.12218 7.04184C1.93587 7.04184 1.75472 7.02341 1.57826 6.98939C1.94573 8.1446 3.01292 8.98562 4.27675 9.00925C3.2884 9.78884 2.04287 10.2542 0.689404 10.2542C0.455691 10.2542 0.225734 10.2405 0 10.2131C1.27838 11.0381 2.79657 11.52 4.42786 11.52C9.74083 11.52 12.6463 7.08861 12.6463 3.24593C12.6463 3.11978 12.6439 2.99411 12.6378 2.86984C13.2029 2.45879 13.6928 1.94662 14.08 1.36358Z" fill="black"/>
</svg>
